<svg width="60" height="60" viewBox="0 0 60 60" fill="none" xmlns="http://www.w3.org/2000/svg">
<g opacity="0.6">
<path fill-rule="evenodd" clip-rule="evenodd" d="M41.1076 2.46437C43.0602 0.511814 46.2263 0.511938 48.1789 2.46437L56.6642 10.9497L56.841 11.1362C58.6147 13.099 58.556 16.1293 56.6642 18.021L23.4308 51.2544L23.4094 51.2329C23.3439 51.2725 23.2746 51.3059 23.2014 51.3296L2.30976 58.0786L2.16523 58.1148C1.44605 58.238 0.814926 57.5464 1.04999 56.8189L7.79901 35.9282C7.82264 35.8551 7.85518 35.7847 7.89472 35.7193L7.87421 35.6987L41.1076 2.46437ZM2.00214 57.1275L10.8781 54.2593L4.86933 48.2505L2.00214 57.1275ZM5.21503 47.1812L11.9465 53.9136L22.6359 50.4595L8.66815 36.4927L5.21503 47.1812ZM19.1877 45.5972L23.4299 49.8403L47.4709 25.7984L43.2287 21.5562L19.1877 45.5972ZM14.2375 40.647L18.4807 44.8902L42.5217 20.8491L38.2795 16.606L14.2375 40.647ZM9.28827 35.6978L13.5305 39.94L37.5725 15.8989L33.3293 11.6558L9.28827 35.6978ZM34.0363 10.9487L48.1779 25.0913L51.7141 21.5562L37.5725 7.41359L34.0363 10.9487ZM47.4719 3.1714C45.9099 1.60959 43.3777 1.60967 41.8156 3.1714L38.2795 6.70656L52.4221 20.8491L55.9572 17.314C57.5193 15.7519 57.5193 13.2189 55.9572 11.6568L47.4719 3.1714Z" fill="url(#paint0_linear_11195_419)"/>
</g>
<defs>
<linearGradient id="paint0_linear_11195_419" x1="-5.48767" y1="5.96775" x2="50.3207" y2="72.2254" gradientUnits="userSpaceOnUse">
<stop stop-color="white"/>
<stop offset="1" stop-color="white" stop-opacity="0.6"/>
</linearGradient>
</defs>
</svg>
