<svg width="60" height="60" viewBox="0 0 60 60" fill="none" xmlns="http://www.w3.org/2000/svg">
<g opacity="0.6">
<path fill-rule="evenodd" clip-rule="evenodd" d="M30 1C35.799 1 40.5 5.70101 40.5 11.5V11.75H55C56.6569 11.75 58 13.0931 58 14.75V54.75C58 56.3551 56.7394 57.6658 55.1543 57.7461L55 57.75H5L4.8457 57.7461C3.26055 57.6658 2 56.3551 2 54.75V14.75C2 13.0931 3.34315 11.75 5 11.75H19.5V11.5C19.5 5.70101 24.201 1 30 1ZM35 37.4697V40.75L34.9893 40.9541C34.8938 41.8957 34.1457 42.6438 33.2041 42.7393L33 42.75H27L26.7959 42.7393C25.8543 42.6438 25.1062 41.8957 25.0107 40.9541L25 40.75V37.4697L3 31.7666V54.75C3 55.8546 3.89543 56.75 5 56.75H55C56.1046 56.75 57 55.8546 57 54.75V31.7666L35 37.4697ZM27 31.75C26.4477 31.75 26 32.1977 26 32.75V40.75C26 41.3023 26.4477 41.75 27 41.75H33C33.5523 41.75 34 41.3023 34 40.75V32.75C34 32.1977 33.5523 31.75 33 31.75H27ZM5 12.75C3.89543 12.75 3 13.6454 3 14.75V30.751C3.04127 30.751 3.08322 30.7549 3.125 30.7656L25 36.4365V32.75C25 31.6454 25.8954 30.75 27 30.75H33C34.1046 30.75 35 31.6454 35 32.75V36.4365L56.875 30.7656C56.9168 30.7549 56.9587 30.751 57 30.751V14.75C57 13.6454 56.1046 12.75 55 12.75H5ZM30 2C24.7533 2 20.5 6.25329 20.5 11.5V11.75H39.5V11.5C39.5 6.25329 35.2467 2 30 2Z" fill="url(#paint0_linear_11195_311)"/>
</g>
<defs>
<linearGradient id="paint0_linear_11195_311" x1="-4.35951" y1="5.93478" x2="51.1992" y2="71.0248" gradientUnits="userSpaceOnUse">
<stop stop-color="white"/>
<stop offset="1" stop-color="white" stop-opacity="0.6"/>
</linearGradient>
</defs>
</svg>
