<svg width="60" height="60" viewBox="0 0 60 60" fill="none" xmlns="http://www.w3.org/2000/svg">
<g opacity="0.6">
<path fill-rule="evenodd" clip-rule="evenodd" d="M29.5 18.9355C32.8137 18.9355 35.5 21.6218 35.5 24.9355C35.5 28.2492 32.8137 30.9355 29.5 30.9355C26.1863 30.9355 23.5 28.2492 23.5 24.9355C23.5 21.6218 26.1863 18.9355 29.5 18.9355ZM29.5 19.9355C26.7386 19.9355 24.5 22.1741 24.5 24.9355C24.5 27.6969 26.7386 29.9355 29.5 29.9355C32.2614 29.9355 34.5 27.6969 34.5 24.9355C34.5 22.1741 32.2614 19.9355 29.5 19.9355Z" fill="url(#paint0_linear_11195_455)"/>
<path fill-rule="evenodd" clip-rule="evenodd" d="M28.7734 1.15229C29.2364 0.949236 29.7636 0.949236 30.2266 1.15229C37.4527 4.32169 42.5 11.5394 42.5 19.9355V26.1503L47.9121 30.5214C50.4975 32.6098 52 35.7556 52 39.079V43.33C51.9999 44.7419 50.5764 45.7092 49.2637 45.1894L42.5 42.5107V46.9355C42.5 49.1742 41.0284 51.0679 39 51.705V55.9355C39 57.3162 37.8807 58.4355 36.5 58.4355H22.5C21.1193 58.4355 20 57.3162 20 55.9355V51.706C17.9715 51.0688 16.5 49.1742 16.5 46.9355V42.5107L9.73633 45.1894C8.42358 45.7092 7.00008 44.7419 7 43.33V39.079C7 35.7556 8.50256 32.6098 11.0879 30.5214L16.5 26.1503V19.9355C16.5 11.5394 21.5473 4.32169 28.7734 1.15229ZM37.7568 51.9287L37.5 51.9355H21.5C21.3312 51.9355 21.1645 51.9264 21 51.9101V55.9355C21 56.7639 21.6716 57.4355 22.5 57.4355H36.5C37.3284 57.4355 38 56.7639 38 55.9355V51.9101C37.9195 51.9181 37.8384 51.9245 37.7568 51.9287ZM18.1475 14.9355C17.7253 16.5313 17.5 18.2072 17.5 19.9355V46.9355C17.5 49.1446 19.2909 50.9355 21.5 50.9355H37.5C39.7091 50.9355 41.5 49.1446 41.5 46.9355V19.9355C41.5 18.2072 41.2747 16.5313 40.8525 14.9355H18.1475ZM11.7158 31.2998L11.499 31.4804C9.28207 33.377 8 36.1521 8 39.079V43.33L8.00781 43.4599C8.08859 44.0936 8.7529 44.5033 9.36816 44.2597L16.5 41.4355V27.4355L11.7158 31.2998ZM42.5 41.4355L49.6318 44.2597C50.2471 44.5033 50.9114 44.0936 50.9922 43.4599L51 43.33V39.079C51 36.1521 49.7179 33.377 47.501 31.4804L47.2842 31.2998L42.5 27.4355V41.4355ZM29.8242 2.06831C29.6175 1.97776 29.3825 1.97776 29.1758 2.06831C24.1027 4.29332 20.1623 8.61537 18.4434 13.9355H40.5566C38.8377 8.61537 34.8973 4.29332 29.8242 2.06831Z" fill="url(#paint1_linear_11195_455)"/>
</g>
<defs>
<linearGradient id="paint0_linear_11195_455" x1="1.88968" y1="5.99439" x2="58.677" y2="58.8175" gradientUnits="userSpaceOnUse">
<stop stop-color="white"/>
<stop offset="1" stop-color="white" stop-opacity="0.6"/>
</linearGradient>
<linearGradient id="paint1_linear_11195_455" x1="1.88968" y1="5.99439" x2="58.677" y2="58.8175" gradientUnits="userSpaceOnUse">
<stop stop-color="white"/>
<stop offset="1" stop-color="white" stop-opacity="0.6"/>
</linearGradient>
</defs>
</svg>
