<svg width="60" height="60" viewBox="0 0 60 60" fill="none" xmlns="http://www.w3.org/2000/svg">
<g opacity="0.6">
<path fill-rule="evenodd" clip-rule="evenodd" d="M23 6C24.1046 6 25 6.89543 25 8C25 9.03565 24.2128 9.887 23.2041 9.98926L23 10H18L17.7959 9.98926C16.7872 9.887 16 9.03565 16 8C16 6.89543 16.8954 6 18 6H23ZM18 7C17.4477 7 17 7.44772 17 8C17 8.55228 17.4477 9 18 9H23C23.5523 9 24 8.55228 24 8C24 7.44772 23.5523 7 23 7H18Z" fill="url(#paint0_linear_11195_277)"/>
<path fill-rule="evenodd" clip-rule="evenodd" d="M37.5 25.1172C41.8533 25.1172 45.3828 28.6467 45.3828 33C45.3828 37.3533 41.8533 40.8828 37.5 40.8828C33.1467 40.8828 29.6172 37.3533 29.6172 33C29.6172 28.6467 33.1467 25.1172 37.5 25.1172ZM37.5 26.1172C33.699 26.1172 30.6172 29.199 30.6172 33C30.6172 36.801 33.699 39.8828 37.5 39.8828C41.301 39.8828 44.3828 36.801 44.3828 33C44.3828 29.199 41.301 26.1172 37.5 26.1172Z" fill="url(#paint1_linear_11195_277)"/>
<path fill-rule="evenodd" clip-rule="evenodd" d="M31 1C34.866 1 38 4.13401 38 8V13.5H39.9414C40.4937 13.5 40.9414 13.9477 40.9414 14.5V17.6963C40.9415 18.1598 41.2613 18.5588 41.7061 18.6895C42.7357 18.9917 43.7195 19.4029 44.6436 19.9082C45.0503 20.1305 45.5589 20.0738 45.8867 19.7461L48.1484 17.4854C48.539 17.0949 49.172 17.0949 49.5625 17.4854L53.0146 20.9375C53.405 21.328 53.405 21.9611 53.0146 22.3516L50.7529 24.6123C50.4251 24.9402 50.3694 25.4486 50.5918 25.8555C51.0972 26.7797 51.5074 27.764 51.8096 28.7939C51.9402 29.2387 52.3392 29.5585 52.8027 29.5586H56C56.5523 29.5586 57 30.0063 57 30.5586V35.4414C57 35.9937 56.5523 36.4414 56 36.4414H52.8027C52.3392 36.4415 51.9402 36.7613 51.8096 37.2061C51.5073 38.2357 51.0971 39.2195 50.5918 40.1436C50.3693 40.5504 50.425 41.0588 50.7529 41.3867L53.0146 43.6484C53.4051 44.0389 53.4051 44.672 53.0146 45.0625L49.5625 48.5146C49.172 48.9051 48.5389 48.9051 48.1484 48.5146L45.8867 46.2529C45.5588 45.925 45.0504 45.8693 44.6436 46.0918C43.7195 46.5971 42.7357 47.0073 41.7061 47.3096C41.2613 47.4402 40.9415 47.8392 40.9414 48.3027V51.5C40.9414 52.0523 40.4937 52.5 39.9414 52.5H37.8369C37.1749 55.5316 34.5503 57.8295 31.3604 57.9912L31 58H10L9.63965 57.9912C6.06046 57.8097 3.19028 54.9395 3.00879 51.3604L3 51V8C3 4.13401 6.13401 1 10 1H31ZM10 2C6.68629 2 4 4.68629 4 8V51C4 54.3137 6.68629 57 10 57H31C33.7958 57 36.1455 55.0879 36.8115 52.5H35.0586C34.5063 52.5 34.0586 52.0523 34.0586 51.5V48.3027C34.0585 47.8392 33.7387 47.4402 33.2939 47.3096C32.264 47.0074 31.2797 46.5972 30.3555 46.0918C29.9486 45.8694 29.4402 45.9251 29.1123 46.2529L26.8516 48.5146C26.4611 48.905 25.828 48.905 25.4375 48.5146L21.9854 45.0625C21.5949 44.672 21.5949 44.039 21.9854 43.6484L24.2461 41.3867C24.5738 41.0589 24.6304 40.5504 24.4082 40.1436C23.9031 39.2195 23.4925 38.2357 23.1904 37.2061C23.0598 36.7613 22.6608 36.4415 22.1973 36.4414H19C18.4477 36.4414 18 35.9937 18 35.4414V30.5586C18 30.0063 18.4477 29.5586 19 29.5586H22.1973C22.6608 29.5585 23.0599 29.2387 23.1904 28.7939C23.4925 27.7641 23.903 26.7797 24.4082 25.8555C24.6303 25.4486 24.5739 24.9401 24.2461 24.6123L21.9854 22.3516C21.5949 21.9611 21.5949 21.328 21.9854 20.9375L25.4375 17.4854C25.828 17.0949 26.4611 17.0949 26.8516 17.4854L29.1123 19.7461C29.4402 20.074 29.9486 20.1297 30.3555 19.9072C31.2798 19.4018 32.264 18.9917 33.2939 18.6895C33.7387 18.5588 34.0585 18.1598 34.0586 17.6963V14.5C34.0586 13.9477 34.5063 13.5 35.0586 13.5H37V8C37 4.68629 34.3137 2 31 2H10ZM35.0586 17.6963C35.0583 18.6346 34.4154 19.4017 33.5762 19.6484L33.5752 19.6494C32.6148 19.9313 31.6967 20.313 30.835 20.7842C30.0672 21.204 29.0696 21.1174 28.4053 20.4531L26.1445 18.1924L22.6924 21.6445L24.9531 23.9053C25.5751 24.5273 25.6923 25.443 25.3584 26.1885L25.2861 26.335C24.8149 27.197 24.432 28.1151 24.1504 29.0752C23.9039 29.9149 23.1357 30.5583 22.1973 30.5586H19V35.4414H22.1973C23.0772 35.4416 23.8068 36.007 24.0977 36.7695L24.1504 36.9238C24.432 37.8835 24.815 38.8022 25.2861 39.6641L25.3584 39.8105C25.6924 40.5562 25.5748 41.4719 24.9531 42.0938L22.6924 44.3555L26.1445 47.8076L28.4053 45.5459L28.5332 45.4277C29.193 44.8724 30.1153 44.8207 30.835 45.2139C31.6967 45.6851 32.6148 46.0678 33.5752 46.3496L33.5762 46.3506C34.3631 46.5819 34.977 47.2704 35.0508 48.1289L35.0586 48.3027V51.5H36.9775C36.9911 51.3351 37 51.1684 37 51V51.5H39.9414V48.3027C39.9417 47.3641 40.5854 46.5962 41.4248 46.3496C42.3848 46.0678 43.3025 45.686 44.1641 45.2148C44.9319 44.795 45.9294 44.8816 46.5938 45.5459L48.8555 47.8076L52.3076 44.3555L50.0459 42.0938C49.3816 41.4294 49.295 40.4319 49.7148 39.6641C50.1861 38.8023 50.5688 37.884 50.8506 36.9238C51.0973 36.0847 51.8643 35.4417 52.8027 35.4414H56V30.5586H52.8027C51.8644 30.5583 51.0973 29.9154 50.8506 29.0762L50.8496 29.0752C50.5678 28.1148 50.1861 27.1967 49.7148 26.335C49.2954 25.5674 49.3816 24.5696 50.0459 23.9053L52.3076 21.6445L48.8555 18.1924L46.5938 20.4531C45.9307 21.116 44.9331 21.2063 44.1641 20.7861C43.3019 20.3147 42.3843 19.9311 41.4248 19.6494L41.4238 19.6484C40.5847 19.4017 39.9417 18.6347 39.9414 17.6963V14.5H35.0586V17.6963Z" fill="url(#paint2_linear_11195_277)"/>
</g>
<defs>
<linearGradient id="paint0_linear_11195_277" x1="-3.13238" y1="5.95652" x2="52.9837" y2="69.0736" gradientUnits="userSpaceOnUse">
<stop stop-color="white"/>
<stop offset="1" stop-color="white" stop-opacity="0.6"/>
</linearGradient>
<linearGradient id="paint1_linear_11195_277" x1="-3.13238" y1="5.95652" x2="52.9837" y2="69.0736" gradientUnits="userSpaceOnUse">
<stop stop-color="white"/>
<stop offset="1" stop-color="white" stop-opacity="0.6"/>
</linearGradient>
<linearGradient id="paint2_linear_11195_277" x1="-3.13238" y1="5.95652" x2="52.9837" y2="69.0736" gradientUnits="userSpaceOnUse">
<stop stop-color="white"/>
<stop offset="1" stop-color="white" stop-opacity="0.6"/>
</linearGradient>
</defs>
</svg>
