<svg width="60" height="60" viewBox="0 0 60 60" fill="none" xmlns="http://www.w3.org/2000/svg">
<g opacity="0.6">
<path fill-rule="evenodd" clip-rule="evenodd" d="M29.2157 1C35.0146 1.00006 39.7157 5.70105 39.7157 11.5V17.5H46.4872L46.6718 17.5088C47.5824 17.5926 48.3308 18.2895 48.4657 19.21L53.3778 52.7764C53.8192 55.7937 51.48 58.4999 48.4305 58.5H10.0009L9.71668 58.4922C6.90118 58.3357 4.76727 55.8661 5.02039 53.0576L5.0536 52.7764L9.96571 19.21C10.1097 18.228 10.9517 17.5001 11.9442 17.5H18.7157V11.5C18.7157 5.70101 23.4167 1 29.2157 1ZM11.9442 18.5C11.4479 18.5001 11.0268 18.8644 10.955 19.3555L6.04285 52.9209C5.68965 55.3349 7.56119 57.5 10.0009 57.5H48.4305C50.8702 57.4999 52.7417 55.3348 52.3886 52.9209L47.4764 19.3555C47.4046 18.8644 46.9834 18.5001 46.4872 18.5H39.7157V24.5C39.7157 24.7761 39.4918 24.9999 39.2157 25C38.9396 25 38.7157 24.7761 38.7157 24.5V18.5H19.7157V24.5C19.7157 24.7761 19.4918 24.9999 19.2157 25C18.9396 25 18.7157 24.7761 18.7157 24.5V18.5H11.9442ZM29.2157 2C23.969 2 19.7157 6.2533 19.7157 11.5V17.5H38.7157V11.5C38.7157 6.25333 34.4624 2.00006 29.2157 2Z" fill="url(#paint0_linear_11195_443)"/>
</g>
<defs>
<linearGradient id="paint0_linear_11195_443" x1="-0.5" y1="6" x2="56.5" y2="63" gradientUnits="userSpaceOnUse">
<stop stop-color="white"/>
<stop offset="1" stop-color="white" stop-opacity="0.6"/>
</linearGradient>
</defs>
</svg>
