<svg width="60" height="60" viewBox="0 0 60 60" fill="none" xmlns="http://www.w3.org/2000/svg">
<g opacity="0.6">
<path fill-rule="evenodd" clip-rule="evenodd" d="M26.5799 7.43543C28.3641 6.89079 30.2628 6.85724 32.0613 7.33387L32.4197 7.43543L57.2918 15.0292C58.2357 15.3174 58.2356 16.654 57.2918 16.9423L53.9871 17.9501C53.9952 17.9858 53.9998 18.0233 53.9998 18.0614V34.5966C55.6959 34.8392 56.9998 36.2982 56.9998 38.0614V49.0614C56.9996 50.9942 55.4326 52.5614 53.4998 52.5614C51.6272 52.5614 50.0984 51.0904 50.0047 49.2411L49.9998 49.0614V38.0614C49.9998 36.2982 51.3036 34.8392 52.9998 34.5966V18.2518L47.4998 19.9306V30.6493L47.4695 30.7333L47.4685 30.7343L47.4676 30.7382C47.4668 30.7401 47.4656 30.7425 47.4646 30.745C47.4625 30.7505 47.46 30.7577 47.4568 30.7655C47.4501 30.7819 47.4403 30.8039 47.4285 30.83C47.4047 30.8824 47.3699 30.9545 47.3211 31.0419C47.2232 31.217 47.0696 31.4561 46.8396 31.7372C46.3785 32.3007 45.6134 33.0274 44.3758 33.744C41.9017 35.1763 37.5567 36.5614 29.9998 36.5614C22.4429 36.5614 18.0979 35.1763 15.6238 33.744C14.3862 33.0275 13.6211 32.3007 13.16 31.7372C12.93 31.4562 12.7764 31.217 12.6785 31.0419C12.6297 30.9545 12.5949 30.8824 12.5711 30.83C12.5592 30.8039 12.5495 30.7819 12.5428 30.7655C12.5396 30.7577 12.537 30.7505 12.535 30.745C12.534 30.7426 12.5328 30.7401 12.532 30.7382L12.531 30.7343L12.5301 30.7333L12.4998 30.6493V20.2362L1.7078 16.9423L1.54179 16.8759C0.81935 16.5162 0.819458 15.4544 1.54179 15.0946L1.7078 15.0292L26.5799 7.43543ZM53.4998 35.5614C52.1191 35.5614 50.9998 36.6807 50.9998 38.0614V49.0614C51 50.4419 52.1192 51.5614 53.4998 51.5614C54.8804 51.5614 55.9996 50.4419 55.9998 49.0614V38.0614C55.9998 36.6807 54.8805 35.5614 53.4998 35.5614ZM32.4197 24.535L32.0613 24.6376C30.2629 25.1141 28.364 25.0797 26.5799 24.535L13.4998 20.5419V30.452C13.5127 30.4784 13.529 30.5132 13.5516 30.5536C13.6217 30.6792 13.7419 30.8703 13.9334 31.1044C14.316 31.572 14.989 32.2207 16.1258 32.8788C18.4019 34.1964 22.5575 35.5614 29.9998 35.5614C37.4421 35.5614 41.5977 34.1964 43.8738 32.8788C45.0106 32.2207 45.6836 31.572 46.0662 31.1044C46.2577 30.8703 46.3779 30.6792 46.448 30.5536C46.4706 30.5132 46.4869 30.4784 46.4998 30.452V20.2362L32.4197 24.535ZM32.1267 8.39246C30.4142 7.86979 28.5844 7.86973 26.8719 8.39246L1.9998 15.9862L26.8719 23.579C28.5847 24.1018 30.4149 24.1019 32.1277 23.579L56.9998 15.9862L32.1267 8.39246Z" fill="url(#paint0_linear_11195_323)"/>
</g>
<defs>
<linearGradient id="paint0_linear_11195_323" x1="-5.47303" y1="10.9619" x2="36.3744" y2="73.118" gradientUnits="userSpaceOnUse">
<stop stop-color="white"/>
<stop offset="1" stop-color="white" stop-opacity="0.6"/>
</linearGradient>
</defs>
</svg>
