<svg width="140" height="27" viewBox="0 0 140 27" fill="none" xmlns="http://www.w3.org/2000/svg">
<path d="M135.968 7.17361L131.149 16.7103L129.064 7.17616H125.343L128.613 20.8167L128.53 20.959C128.021 21.9602 127.477 22.6488 126.895 23.0249C126.31 23.4213 125.52 23.6094 124.526 23.5916L123.934 26.9865C125.738 27.0805 127.315 26.6841 128.669 25.7973C130.02 24.9282 131.263 23.4391 132.389 21.3249L140 7.17361H135.968Z" fill="#6053BD"/>
<path d="M135.968 7.17361L131.149 16.7103L129.064 7.17616H125.343L128.613 20.8167L128.53 20.959C128.021 21.9602 127.477 22.6488 126.895 23.0249C126.31 23.4213 125.52 23.6094 124.526 23.5916L123.934 26.9865C125.738 27.0805 127.315 26.6841 128.669 25.7973C130.02 24.9282 131.263 23.4391 132.389 21.3249L140 7.17361H135.968Z" fill="url(#paint0_linear_6672_7747)"/>
<path d="M119.903 9.06907C119.002 7.54441 117.613 6.77954 115.563 6.77954C113.513 6.77954 111.766 7.46818 110.319 8.84545C108.891 10.2049 107.988 11.8948 107.613 13.9124C107.218 16.0062 107.54 17.8257 108.572 19.3732C109.625 20.9385 111.202 21.7211 113.308 21.7211C115.206 21.7211 116.765 21.1545 117.987 20.0237L117.762 21.3247H121.399L123.879 7.17341H120.243L119.903 9.06907ZM119.028 14.0242L118.972 14.4765C118.726 15.5895 118.182 16.4941 117.337 17.1929C116.492 17.8917 115.525 18.2399 114.437 18.2399C113.308 18.2399 112.445 17.8739 111.842 17.137C111.24 16.3823 111.043 15.4116 111.25 14.2224C111.455 13.0154 111.971 12.0523 112.799 11.3357C113.644 10.6191 114.667 10.2608 115.758 10.2608C116.849 10.2608 117.704 10.609 118.324 11.3078C118.944 11.9862 119.177 12.8934 119.028 14.0242Z" fill="#6053BD"/>
<path d="M119.903 9.06907C119.002 7.54441 117.613 6.77954 115.563 6.77954C113.513 6.77954 111.766 7.46818 110.319 8.84545C108.891 10.2049 107.988 11.8948 107.613 13.9124C107.218 16.0062 107.54 17.8257 108.572 19.3732C109.625 20.9385 111.202 21.7211 113.308 21.7211C115.206 21.7211 116.765 21.1545 117.987 20.0237L117.762 21.3247H121.399L123.879 7.17341H120.243L119.903 9.06907ZM119.028 14.0242L118.972 14.4765C118.726 15.5895 118.182 16.4941 117.337 17.1929C116.492 17.8917 115.525 18.2399 114.437 18.2399C113.308 18.2399 112.445 17.8739 111.842 17.137C111.24 16.3823 111.043 15.4116 111.25 14.2224C111.455 13.0154 111.971 12.0523 112.799 11.3357C113.644 10.6191 114.667 10.2608 115.758 10.2608C116.849 10.2608 117.704 10.609 118.324 11.3078C118.944 11.9862 119.177 12.8934 119.028 14.0242Z" fill="url(#paint1_linear_6672_7747)"/>
<path d="M91.8132 21.327H95.7033L96.6549 15.8332L92.7193 16.1483L91.8132 21.327Z" fill="#6053BD"/>
<path d="M91.8132 21.327H95.7033L96.6549 15.8332L92.7193 16.1483L91.8132 21.327Z" fill="url(#paint2_linear_6672_7747)"/>
<path d="M78.4776 17.8714C78.0827 17.7011 77.9435 17.2691 78.0549 16.5703L78.2194 15.6479L74.6406 15.315L74.4179 16.5703C74.0813 18.4736 74.4002 19.8153 75.3772 20.5878C76.3718 21.3628 78.0524 21.6067 80.4213 21.3247L80.9857 18.0137C79.7279 18.0873 78.8901 18.0416 78.4776 17.8714Z" fill="#6053BD"/>
<path d="M78.4776 17.8714C78.0827 17.7011 77.9435 17.2691 78.0549 16.5703L78.2194 15.6479L74.6406 15.315L74.4179 16.5703C74.0813 18.4736 74.4002 19.8153 75.3772 20.5878C76.3718 21.3628 78.0524 21.6067 80.4213 21.3247L80.9857 18.0137C79.7279 18.0873 78.8901 18.0416 78.4776 17.8714Z" fill="url(#paint3_linear_6672_7747)"/>
<path d="M65.9283 21.3248H69.5653L70.6814 14.9441L67.1001 14.6113L65.9283 21.3248Z" fill="#6053BD"/>
<path d="M65.9283 21.3248H69.5653L70.6814 14.9441L67.1001 14.6113L65.9283 21.3248Z" fill="url(#paint4_linear_6672_7747)"/>
<path d="M106.975 3.494C105.884 2.17263 104.343 1.51195 102.351 1.51195H95.2772V1.51703L93.3486 12.5479L97.0463 13.6685L91.177 12.8452C90.1267 12.6978 89.3674 11.7602 89.4357 10.698L90.1393 0L89.5091 0.00508326L86.3049 10.9851C86.0544 11.8389 85.2799 12.4335 84.3941 12.4463L78.7678 12.5352L79.0968 10.6827H82.258L82.9059 7.17349H79.6916L80.3952 3.21194L76.5608 4.31477L76.0521 7.17349H73.6274L73.0073 10.6827H75.4598L75.1207 12.5936L71.0813 12.6572V12.6368C71.4027 10.825 71.1319 9.39949 70.2663 8.36272C69.383 7.30563 68.1606 6.77708 66.6015 6.77708C64.7995 6.77708 63.3416 7.41744 62.2331 8.70069L62.514 7.17349H58.877L56.3967 21.3248H60.0337L61.4434 13.2314C61.7066 12.2303 62.1597 11.4756 62.7975 10.9673C63.4353 10.4388 64.2173 10.1745 65.0804 10.1745C65.9434 10.1745 66.5838 10.4312 66.9963 10.9394C67.3532 11.3612 67.4899 11.9558 67.4139 12.7131L63.6833 12.7715L63.6453 13.5237L83.1362 15.3431C83.3564 15.3634 83.5791 15.3761 83.8018 15.3837L87.4565 15.6328L85.08 16.3163C85.161 16.5476 85.3128 17.2057 85.3052 17.4649L85.0369 25.4744H85.6672L88.3525 17.01C88.6031 16.2223 89.3016 15.6658 90.1191 15.5997L99.8557 14.8171H100.126C102.344 14.8171 104.168 14.2225 105.596 13.0332C107.023 11.8237 107.879 10.2685 108.16 8.36272C108.461 6.41879 108.066 4.79503 106.975 3.494ZM104.297 8.07812C104.128 9.02086 103.705 9.77557 103.029 10.3422C102.371 10.8886 101.536 11.163 100.521 11.163H97.4766L98.5193 5.16349H101.761C102.756 5.16349 103.47 5.42777 103.903 5.95631C104.335 6.46453 104.467 7.17349 104.297 8.07812Z" fill="#6053BD"/>
<path d="M106.975 3.494C105.884 2.17263 104.343 1.51195 102.351 1.51195H95.2772V1.51703L93.3486 12.5479L97.0463 13.6685L91.177 12.8452C90.1267 12.6978 89.3674 11.7602 89.4357 10.698L90.1393 0L89.5091 0.00508326L86.3049 10.9851C86.0544 11.8389 85.2799 12.4335 84.3941 12.4463L78.7678 12.5352L79.0968 10.6827H82.258L82.9059 7.17349H79.6916L80.3952 3.21194L76.5608 4.31477L76.0521 7.17349H73.6274L73.0073 10.6827H75.4598L75.1207 12.5936L71.0813 12.6572V12.6368C71.4027 10.825 71.1319 9.39949 70.2663 8.36272C69.383 7.30563 68.1606 6.77708 66.6015 6.77708C64.7995 6.77708 63.3416 7.41744 62.2331 8.70069L62.514 7.17349H58.877L56.3967 21.3248H60.0337L61.4434 13.2314C61.7066 12.2303 62.1597 11.4756 62.7975 10.9673C63.4353 10.4388 64.2173 10.1745 65.0804 10.1745C65.9434 10.1745 66.5838 10.4312 66.9963 10.9394C67.3532 11.3612 67.4899 11.9558 67.4139 12.7131L63.6833 12.7715L63.6453 13.5237L83.1362 15.3431C83.3564 15.3634 83.5791 15.3761 83.8018 15.3837L87.4565 15.6328L85.08 16.3163C85.161 16.5476 85.3128 17.2057 85.3052 17.4649L85.0369 25.4744H85.6672L88.3525 17.01C88.6031 16.2223 89.3016 15.6658 90.1191 15.5997L99.8557 14.8171H100.126C102.344 14.8171 104.168 14.2225 105.596 13.0332C107.023 11.8237 107.879 10.2685 108.16 8.36272C108.461 6.41879 108.066 4.79503 106.975 3.494ZM104.297 8.07812C104.128 9.02086 103.705 9.77557 103.029 10.3422C102.371 10.8886 101.536 11.163 100.521 11.163H97.4766L98.5193 5.16349H101.761C102.756 5.16349 103.47 5.42777 103.903 5.95631C104.335 6.46453 104.467 7.17349 104.297 8.07812Z" fill="url(#paint5_linear_6672_7747)"/>
<path d="M54.2513 8.95484C53.0289 7.50134 51.404 6.77459 49.3185 6.77459C47.233 6.77459 45.3905 7.46322 43.7934 8.84049C42.1762 10.2 41.2195 11.9076 40.9183 13.9633C40.5614 16.1537 40.9841 17.991 42.1863 19.4826C43.3885 20.9742 45.1652 21.7187 47.5139 21.7187C50.1461 21.7187 52.2493 20.8217 53.8287 19.0303L51.2648 16.9644C50.3638 17.9274 49.2071 18.4077 47.7974 18.4077C46.8205 18.4077 46.0333 18.1917 45.431 17.7572C44.8286 17.3049 44.492 16.634 44.416 15.7472H55.0714C55.3169 15.1246 55.4485 14.624 55.4662 14.2479H55.4637C55.8585 12.1541 55.4535 10.388 54.2513 8.95484ZM44.9273 12.891C45.7524 11.003 47.1444 10.0602 49.0983 10.0602C49.9993 10.0602 50.7131 10.3067 51.2395 10.7971C51.7836 11.2672 52.0671 11.966 52.0848 12.891H44.9273Z" fill="#6053BD"/>
<path d="M54.2513 8.95484C53.0289 7.50134 51.404 6.77459 49.3185 6.77459C47.233 6.77459 45.3905 7.46322 43.7934 8.84049C42.1762 10.2 41.2195 11.9076 40.9183 13.9633C40.5614 16.1537 40.9841 17.991 42.1863 19.4826C43.3885 20.9742 45.1652 21.7187 47.5139 21.7187C50.1461 21.7187 52.2493 20.8217 53.8287 19.0303L51.2648 16.9644C50.3638 17.9274 49.2071 18.4077 47.7974 18.4077C46.8205 18.4077 46.0333 18.1917 45.431 17.7572C44.8286 17.3049 44.492 16.634 44.416 15.7472H55.0714C55.3169 15.1246 55.4485 14.624 55.4662 14.2479H55.4637C55.8585 12.1541 55.4535 10.388 54.2513 8.95484ZM44.9273 12.891C45.7524 11.003 47.1444 10.0602 49.0983 10.0602C49.9993 10.0602 50.7131 10.3067 51.2395 10.7971C51.7836 11.2672 52.0671 11.966 52.0848 12.891H44.9273Z" fill="url(#paint6_linear_6672_7747)"/>
<path d="M37.192 10.6829H40.3456L40.9935 7.17364H37.7792L38.4853 3.21209L34.651 4.31492L34.1448 7.17364H31.7201L31.1 10.6829H33.5525L32.5098 16.5706C32.1732 18.4739 32.4921 19.8156 33.469 20.5881C34.4662 21.3631 36.1468 21.607 38.5157 21.325L39.0801 18.0139C37.8222 18.0876 36.9845 18.0419 36.5719 17.8716C36.1771 17.7014 36.0354 17.2694 36.1493 16.5706L37.192 10.6829Z" fill="#6053BD"/>
<path d="M37.192 10.6829H40.3456L40.9935 7.17364H37.7792L38.4853 3.21209L34.651 4.31492L34.1448 7.17364H31.7201L31.1 10.6829H33.5525L32.5098 16.5706C32.1732 18.4739 32.4921 19.8156 33.469 20.5881C34.4662 21.3631 36.1468 21.607 38.5157 21.325L39.0801 18.0139C37.8222 18.0876 36.9845 18.0419 36.5719 17.8716C36.1771 17.7014 36.0354 17.2694 36.1493 16.5706L37.192 10.6829Z" fill="url(#paint7_linear_6672_7747)"/>
<path d="M24.6994 6.77755C22.8949 6.77755 21.4396 7.41791 20.331 8.70116L20.612 7.17396H16.975L14.4946 21.3253H18.1316L19.5414 13.2319C19.8046 12.2307 20.2576 11.476 20.8954 10.9678C21.5332 10.4393 22.3153 10.175 23.1783 10.175C24.0414 10.175 24.6817 10.4316 25.0943 10.9399C25.5068 11.4303 25.6308 12.1469 25.4613 13.0896L24.0237 21.3253H27.6607L29.1818 12.6373C29.5007 10.8255 29.2298 9.39996 28.3643 8.36319C27.481 7.3061 26.2585 6.77755 24.6994 6.77755Z" fill="#6053BD"/>
<path d="M24.6994 6.77755C22.8949 6.77755 21.4396 7.41791 20.331 8.70116L20.612 7.17396H16.975L14.4946 21.3253H18.1316L19.5414 13.2319C19.8046 12.2307 20.2576 11.476 20.8954 10.9678C21.5332 10.4393 22.3153 10.175 23.1783 10.175C24.0414 10.175 24.6817 10.4316 25.0943 10.9399C25.5068 11.4303 25.6308 12.1469 25.4613 13.0896L24.0237 21.3253H27.6607L29.1818 12.6373C29.5007 10.8255 29.2298 9.39996 28.3643 8.36319C27.481 7.3061 26.2585 6.77755 24.6994 6.77755Z" fill="url(#paint8_linear_6672_7747)"/>
<path d="M12.7686 13.1423L13.4444 9.49077H5.94773L6.70955 5.24461H14.8845L15.5324 1.51175H3.4674L0 21.3246H12.2042L12.8522 17.5892H4.53799L5.32765 13.1423H12.7686Z" fill="#6053BD"/>
<path d="M12.7686 13.1423L13.4444 9.49077H5.94773L6.70955 5.24461H14.8845L15.5324 1.51175H3.4674L0 21.3246H12.2042L12.8522 17.5892H4.53799L5.32765 13.1423H12.7686Z" fill="url(#paint9_linear_6672_7747)"/>
<defs>
<linearGradient id="paint0_linear_6672_7747" x1="0" y1="13.5" x2="140" y2="13.5" gradientUnits="userSpaceOnUse">
<stop stop-color="white" stop-opacity="0.2"/>
<stop offset="1" stop-color="white" stop-opacity="0"/>
</linearGradient>
<linearGradient id="paint1_linear_6672_7747" x1="0" y1="13.5" x2="140" y2="13.5" gradientUnits="userSpaceOnUse">
<stop stop-color="white" stop-opacity="0.2"/>
<stop offset="1" stop-color="white" stop-opacity="0"/>
</linearGradient>
<linearGradient id="paint2_linear_6672_7747" x1="0" y1="13.5" x2="140" y2="13.5" gradientUnits="userSpaceOnUse">
<stop stop-color="white" stop-opacity="0.2"/>
<stop offset="1" stop-color="white" stop-opacity="0"/>
</linearGradient>
<linearGradient id="paint3_linear_6672_7747" x1="0" y1="13.5" x2="140" y2="13.5" gradientUnits="userSpaceOnUse">
<stop stop-color="white" stop-opacity="0.2"/>
<stop offset="1" stop-color="white" stop-opacity="0"/>
</linearGradient>
<linearGradient id="paint4_linear_6672_7747" x1="0" y1="13.5" x2="140" y2="13.5" gradientUnits="userSpaceOnUse">
<stop stop-color="white" stop-opacity="0.2"/>
<stop offset="1" stop-color="white" stop-opacity="0"/>
</linearGradient>
<linearGradient id="paint5_linear_6672_7747" x1="0" y1="13.5" x2="140" y2="13.5" gradientUnits="userSpaceOnUse">
<stop stop-color="white" stop-opacity="0.2"/>
<stop offset="1" stop-color="white" stop-opacity="0"/>
</linearGradient>
<linearGradient id="paint6_linear_6672_7747" x1="0" y1="13.5" x2="140" y2="13.5" gradientUnits="userSpaceOnUse">
<stop stop-color="white" stop-opacity="0.2"/>
<stop offset="1" stop-color="white" stop-opacity="0"/>
</linearGradient>
<linearGradient id="paint7_linear_6672_7747" x1="0" y1="13.5" x2="140" y2="13.5" gradientUnits="userSpaceOnUse">
<stop stop-color="white" stop-opacity="0.2"/>
<stop offset="1" stop-color="white" stop-opacity="0"/>
</linearGradient>
<linearGradient id="paint8_linear_6672_7747" x1="0" y1="13.5" x2="140" y2="13.5" gradientUnits="userSpaceOnUse">
<stop stop-color="white" stop-opacity="0.2"/>
<stop offset="1" stop-color="white" stop-opacity="0"/>
</linearGradient>
<linearGradient id="paint9_linear_6672_7747" x1="0" y1="13.5" x2="140" y2="13.5" gradientUnits="userSpaceOnUse">
<stop stop-color="white" stop-opacity="0.2"/>
<stop offset="1" stop-color="white" stop-opacity="0"/>
</linearGradient>
</defs>
</svg>
